<svg width="107" height="100" viewBox="0 0 107 100" fill="none" xmlns="http://www.w3.org/2000/svg">
<g clip-path="url(#clip0_2_19)">
<path d="M46.8 100C46.8 99.5 46.7 99.1 46.7 98.8C46.7 88.6 46.7 78.3 46.7 68.1C46.7 67.5 47 66.7 47.4 66.3C65.5 46 102 4.90001 102.1 4.40001C100.1 6.10001 55 43.2 34.5 60C33.7 60.7 33 60.8 32 60.3C22.2 55.7 12.3 51.2 2.5 46.6C1 46 -0.1 45 -3.98606e-07 43.2C0.0999996 41.5 1.1 40.6 2.7 40C35.7 26.8 68.7 13.6 101.7 0.400007C103.1 -0.0999933 104.4 -0.299993 105.6 0.700007C106.8 1.70001 107 3.00001 106.7 4.50001C102.8 27.7 99 50.9 95.1 74C94.6 77.2 94 80.4 93.5 83.6C93 86.3 90.9 87.4 88.4 86.3C82.8 83.7 77.1 81.1 71.5 78.5C70.8 78.2 70.3 78.2 69.7 78.8C62.4 85.6 55.2 92.4 47.9 99.2C47.5 99.4 47.2 99.6 46.8 100Z" fill="white"/>
</g>
<defs>
<clipPath id="clip0_2_19">
<rect width="106.8" height="100" fill="white"/>
</clipPath>
</defs>
</svg>
