<svg width="100" height="100" viewBox="0 0 100 100" fill="none" xmlns="http://www.w3.org/2000/svg">
<g clip-path="url(#clip0_2_11)">
<path d="M67.9 8.5C80.9 8.5 91.5 19.1 91.5 32.1V67.9C91.5 80.9 80.9 91.5 67.9 91.5H32.1C19.1 91.5 8.5 80.9 8.5 67.9V32.1C8.5 19.1 19.1 8.5 32.1 8.5H67.9ZM67.9 0H32.1C14.4 0 0 14.4 0 32.1V67.9C0 85.6 14.4 100 32.1 100H67.9C85.6 100 100 85.6 100 67.9V32.1C100 14.4 85.6 0 67.9 0Z" fill="white"/>
<path d="M50 33.6C59.1 33.6 66.4 41 66.4 50C66.4 59 59.1 66.4 50 66.4C40.9 66.4 33.6 59.1 33.6 50C33.6 40.9 40.9 33.6 50 33.6ZM50 25.1C36.2 25.1 25.1 36.3 25.1 50C25.1 63.7 36.2 74.9 50 74.9C63.8 74.9 74.9 63.8 74.9 50C74.9 36.2 63.8 25.1 50 25.1Z" fill="white"/>
<path d="M76.4 28.3C78.9957 28.3 81.1 26.1957 81.1 23.6C81.1 21.0043 78.9957 18.9 76.4 18.9C73.8043 18.9 71.7 21.0043 71.7 23.6C71.7 26.1957 73.8043 28.3 76.4 28.3Z" fill="white"/>
</g>
<defs>
<clipPath id="clip0_2_11">
<rect width="100" height="100" fill="white"/>
</clipPath>
</defs>
</svg>
