<svg width="158" height="100" viewBox="0 0 158 100" fill="none" xmlns="http://www.w3.org/2000/svg">
<g clip-path="url(#clip0_3_21)">
<path d="M0.1 97.6C0.1 96.3 0.1 95.3 0.1 94.3C0.1 64 0.1 33.6 0 3.3C0 0.8 0.5 0 3.2 0C18.4 0.1 33.7 0 49 0.1C54.1 0.1 59.2 0.6 64.1 2.7C72.8 6.5 77.2 13.3 78.2 22.4C78.5 25.1 78.4 28 78 30.7C77 37.2 73.2 41.5 67.1 43.8C66.8 43.9 66.5 44.1 66.2 44.2C66.1 44.2 66.1 44.3 65.9 44.6C66.5 44.7 66.9 44.9 67.4 45C73 46.1 77 49.5 79.2 54.7C82.6 62.9 82.9 71.3 80.1 79.7C76.9 89.4 69.5 94.4 60 96.5C56.4 97.3 52.7 97.6 49 97.6C33.8 97.7 18.6 97.7 3.5 97.7C2.3 97.6 1.3 97.6 0.1 97.6ZM22.5 80.4C29.5 80.4 36.2 80.4 43 80.4C45.9 80.4 48.7 80.4 51.6 80.1C56.9 79.4 60 76.7 60.6 71.4C61 68.2 60.7 64.7 59.9 61.5C58.8 57.1 55.4 54.5 50.9 54.4C41.6 54.2 32.4 54.4 23.1 54.4C23 54.4 22.8 54.6 22.6 54.7C22.5 63.1 22.5 71.5 22.5 80.4ZM22.6 17.5C22.6 25 22.6 32 22.6 39.1C32.1 39.1 41.4 39.2 50.7 39C54 38.9 56.3 36.8 56.8 33.6C57.3 30.5 57.6 27.2 57.2 24.1C56.7 19.6 53.8 17.5 49.2 17.4C43.9 17.4 38.6 17.4 33.3 17.4C29.8 17.5 26.3 17.5 22.6 17.5Z" fill="white"/>
<path d="M139.6 73.9C145.1 73.9 150.7 73.9 156.2 73.9C156.8 83.3 151.9 91.9 142.8 95.8C129.3 101.6 115.5 101.5 102.2 94.8C93 90.1 88.2 81.9 86.5 71.9C84.1 57.9 87 45.1 97 34.5C102 29.2 108.4 26.6 115.6 25.6C122.9 24.6 130.2 24.6 137.3 27.3C145.6 30.4 151.1 36.3 154.3 44.5C157.1 51.7 157.6 59.2 157.1 67.2C140.3 67.2 123.6 67.2 106.9 67.2C105.9 75.2 111 82 118.9 83.8C129 86 136.8 82.4 139.6 73.9ZM138.2 54C137.9 45.1 132.6 39.6 124.5 39.3C115 39 107.5 45.1 106.7 54C117.1 54 127.6 54 138.2 54Z" fill="white"/>
<path d="M142.3 6.10001C142.3 10.1 142.3 13.8 142.3 17.7C128.9 17.7 115.6 17.7 102.2 17.7C102.2 13.8 102.2 10 102.2 6.10001C115.6 6.10001 128.9 6.10001 142.3 6.10001Z" fill="white"/>
</g>
<defs>
<clipPath id="clip0_3_21">
<rect width="157.2" height="100" fill="white"/>
</clipPath>
</defs>
</svg>
