<?xml version="1.0" encoding="utf-8"?>
<!-- Generator: Adobe Illustrator 22.0.1, SVG Export Plug-In . SVG Version: 6.00 Build 0)  -->
<svg version="1.1" id="Шар_1" xmlns="http://www.w3.org/2000/svg" xmlns:xlink="http://www.w3.org/1999/xlink" x="0px" y="0px"
	 viewBox="0 0 100 100" style="enable-background:new 0 0 100 100;" xml:space="preserve">
<style type="text/css">
	.st0{display:none;}
	.st1{display:inline;}
	.st2{fill:#FFFFFF;}
	.st3{display:none;fill:#FFFFFF;}
	
		.st4{display:inline;fill:none;stroke:#FFFFFF;stroke-width:7.2592;stroke-linecap:round;stroke-linejoin:round;stroke-miterlimit:10;}
</style>
<g class="st0">
	<g class="st1">
		<path class="st2" d="M68.8,7.4c13.2,0,23.9,10.7,23.9,23.9v37.5c0,13.2-10.7,23.9-23.9,23.9H31.2c-13.2,0-23.9-10.7-23.9-23.9
			V31.2c0-13.2,10.7-23.9,23.9-23.9H68.8 M68.8,0H31.2C14,0,0,14,0,31.2v37.5C0,86,14,100,31.2,100h37.5C86,100,100,86,100,68.8
			V31.2C100,14,86,0,68.8,0L68.8,0z"/>
	</g>
	<g class="st1">
		<path class="st2" d="M50.4,32.9c9.6,0,17.4,7.8,17.4,17.4S60,67.8,50.4,67.8S33,60,33,50.4S40.8,32.9,50.4,32.9 M50.4,24.4
			c-14.4,0-26,11.6-26,26s11.6,26,26,26s26-11.6,26-26S64.7,24.4,50.4,24.4L50.4,24.4z"/>
	</g>
	<g class="st1">
		<circle class="st2" cx="77.2" cy="23.6" r="5.5"/>
	</g>
</g>
<path class="st3" d="M37.6,86.4c0.5-7.4,1-14.9,1.7-22.3c0.1-0.9,1.1-1.8,1.9-2.5c12.7-11.5,41.2-38.2,40.9-38.7
	c-1.4,0.5-36.3,21.8-52.4,32c-2.4,1.6-4.5,2-7.4,1c-6-2.2-12.2-3.8-18.3-5.9c-1.6-0.5-4-1.5-4.1-3.2c-0.1-1.8,2.3-3.1,3.8-3.7
	c12.1-4.8,24.2-9.5,36.3-14.2c17-6.6,34-13.1,51-19.6c0.8-0.3,1.6-0.7,2.5-0.9c4-1.1,6.7,0.9,6.4,5.1c-0.2,2.8-1,5.6-1.5,8.4
	C94,42.7,89.6,63.5,85.2,84.3c-0.1,0.7-0.3,1.4-0.4,2c-1.5,6-4.6,7.2-9.6,3.6c-6.6-4.8-13.2-9.6-19.7-14.6c-1.7-1.3-2.7-1.3-4.2,0.3
	c-3,3.1-6.2,6.1-9.4,9c-1,0.9-2.4,1.5-3.6,2.3C38.1,86.7,37.9,86.5,37.6,86.4z"/>
<g>
	<path class="st2" d="M41.7,48.2c5.2,0.7,8,3.8,9.4,8.6c1.2,4.4,1.3,8.8-0.1,13.2c-2,6.3-6.6,9.7-12.8,11.1c-2.3,0.5-4.7,0.7-7,0.7
		c-9.7,0.1-19.4,0-29.1,0c-0.6,0-1.3,0-2,0c0-20.8,0-41.3,0-62.1c0.7,0,1.2,0,1.8,0c9.8,0,19.5-0.1,29.3,0.1c2.9,0,5.8,0.4,8.5,1.3
		c6.7,2.3,9.8,7.4,10.1,14.4c0.2,5.2-1.5,10.3-7.7,12.3C42,47.9,41.9,48,41.7,48.2z M14.3,54.3c0,5.7,0,11.1,0,16.7
		c4.3,0,8.4,0,12.5,0c2,0,4,0,5.9-0.2c3.3-0.4,5.2-2.1,5.7-5.4c0.3-1.9,0.3-3.9-0.1-5.7c-0.7-3.5-3.2-5.3-6.8-5.3
		c-3.9,0-7.8,0-11.7,0C17.9,54.3,16.2,54.3,14.3,54.3z M14.2,44.8c1.8,0,3.5,0,5.1,0c3.9,0,7.7,0,11.6,0c3.3,0,4.9-1.3,5.4-4.6
		c0.2-1.6,0.3-3.3,0-5c-0.4-2.9-2.2-4.3-5.2-4.3c-5.1,0-10.2,0-15.3,0c-0.5,0-1,0.1-1.6,0.1C14.2,35.6,14.2,40,14.2,44.8z"/>
	<path class="st2" d="M99.9,62.6c-10.7,0-21.4,0-31.9,0c-0.7,4.2,1.9,8.5,5.8,10c3.5,1.3,7.1,1.1,10.6-0.2c2.5-0.9,4-2.8,4.3-5.6
		c3.6,0,7.1,0,10.6,0c0.7,5.6-2.7,11.6-8.5,14c-8.6,3.6-17.4,3.6-25.8-0.7c-5.8-3-8.8-8.2-9.9-14.5c-1.6-9,0.2-17.1,6.6-23.9
		c3.1-3.3,7.1-5,11.5-5.7c4.7-0.7,9.4-0.7,14,0.9c5.4,2,9,5.8,11.1,11.1C99.9,52.8,100.2,57.6,99.9,62.6z M67.8,54.1
		c6.8,0,13.4,0,20.1,0c-0.2-5.6-3.6-9.1-8.7-9.3C73.1,44.6,68.4,48.4,67.8,54.1z"/>
	<path class="st2" d="M64.9,31c0-2.5,0-4.9,0-7.4c8.5,0,17,0,25.5,0c0,2.4,0,4.8,0,7.4C82,31,73.5,31,64.9,31z"/>
</g>
<g class="st0">
	<g class="st1">
		<path class="st2" d="M87.4,21.1c2.9,0,5.3,2.4,5.3,5.3v49.3c0,2.9-2.4,5.3-5.3,5.3H12.5c-2.9,0-5.3-2.4-5.3-5.3V26.4
			c0-2.9,2.4-5.3,5.3-5.3H87.4 M87.4,13.9H12.5C5.6,13.9,0,19.5,0,26.4v49.3c0,6.9,5.6,12.5,12.5,12.5h74.8
			c6.9,0,12.5-5.6,12.5-12.5V26.4C99.9,19.5,94.3,13.9,87.4,13.9L87.4,13.9z"/>
	</g>
	<line class="st4" x1="8.5" y1="21.4" x2="49.9" y2="57.2"/>
	<line class="st4" x1="91.5" y1="21.4" x2="50.1" y2="57.2"/>
	<line class="st4" x1="7.4" y1="82.5" x2="36.8" y2="47.2"/>
	<line class="st4" x1="93.1" y1="82.5" x2="63.7" y2="47.2"/>
</g>
</svg>
