<svg width="133" height="100" viewBox="0 0 133 100" fill="none" xmlns="http://www.w3.org/2000/svg">
<g clip-path="url(#clip0_3_26)">
<path d="M132.6 10.4C131.6 1.80001 123.1 -1.59999 115.8 0.600009C110.4 2.20001 78.2 27.6 67.9 35.4C66.8 36.2 66.2 36.1 65.1 35.4C59.7 31.2 27 6.70001 25.2 5.20001C21.2 2.00001 17.1 -0.399991 11.6 0.200009C6.7 0.700009 1.1 5.50001 0.4 10.4C0.3 10.6 0 70.5 0 91.1C0 95.8 3.4 99.3 8.3 100C8.8 100 29.4 99.8 30.2 99.7C30.2 99.3 30.3 49.4 30.3 49.1C30.6 49.3 53.7 66.5 64.9 74.9C65.8 75.6 66.6 76 67.8 75.1C76 68.8 99.3 51.5 102.7 49.1C102.7 49.3 103 99.4 103.1 100C110.2 100 125.8 99.8 126.6 99.7C129.2 99.3 132 96.6 132.5 94C132.7 93.4 132.7 10.6 132.6 10.4ZM30.3 48.7C30.3 48.5 30.3 48.5 30.3 48.7V48.7Z" fill="white"/>
<path d="M132.9 26.4C133 26.3 133 26.2 132.9 26C132.8 26.1 132.7 26.2 132.6 26.4C132.7 26.4 132.8 26.4 132.9 26.4Z" fill="white"/>
</g>
<defs>
<clipPath id="clip0_3_26">
<rect width="133" height="100" fill="white"/>
</clipPath>
</defs>
</svg>
